<svg xmlns="http://www.w3.org/2000/svg" viewBox="0 0 24 24" fill="none">
  <path d="M10.325 4.317a1.724 1.724 0 0 1 3.35 0l.165.718a1.724 1.724 0 0 0 2.573 1.066l.62-.358a1.724 1.724 0 0 1 2.35.63 1.724 1.724 0 0 1-.63 2.35l-.62.358a1.724 1.724 0 0 0-.77 2.23l.285.684a1.724 1.724 0 0 1-1.59 2.39h-.72a1.724 1.724 0 0 0-1.62 1.13l-.244.698a1.724 1.724 0 0 1-3.272 0l-.244-.698a1.724 1.724 0 0 0-1.62-1.13h-.72a1.724 1.724 0 0 1-1.59-2.39l.285-.684a1.724 1.724 0 0 0-.77-2.23l-.62-.358a1.724 1.724 0 1 1 1.72-2.98l.62.358a1.724 1.724 0 0 0 2.573-1.066l.165-.718Z" stroke="#2563EB" stroke-width="1.8" stroke-linecap="round" stroke-linejoin="round"/>
  <circle cx="12" cy="12" r="2.5" stroke="#2563EB" stroke-width="1.8"/>
</svg>
